<svg width="128" height="128" viewBox="0 0 128 128" xmlns="http://www.w3.org/2000/svg">
  <defs>
    <linearGradient id="bgGradient" x1="0%" y1="0%" x2="100%" y2="100%">
      <stop offset="0%" style="stop-color:#1e2a4a;stop-opacity:1" />
      <stop offset="100%" style="stop-color:#2d1b4e;stop-opacity:1" />
    </linearGradient>
    <linearGradient id="moonGradient" x1="0%" y1="0%" x2="100%" y2="100%">
      <stop offset="0%" style="stop-color:#fbbf24;stop-opacity:1" />
      <stop offset="100%" style="stop-color:#f59e0b;stop-opacity:1" />
    </linearGradient>
  </defs>

  <!-- Background -->
  <rect width="128" height="128" rx="24" fill="url(#bgGradient)"/>

  <!-- Glow effect -->
  <circle cx="64" cy="64" r="50" fill="url(#moonGradient)" opacity="0.1" filter="blur(20)"/>

  <!-- Moon -->
  <circle cx="64" cy="64" r="32" fill="url(#moonGradient)"/>

  <!-- Craters -->
  <circle cx="72" cy="58" r="6" fill="#f59e0b" opacity="0.3"/>
  <circle cx="58" cy="68" r="4" fill="#f59e0b" opacity="0.3"/>
  <circle cx="68" cy="72" r="3" fill="#f59e0b" opacity="0.3"/>

  <!-- Stars -->
  <path d="M 32 28 L 33 30 L 35 31 L 33 32 L 32 34 L 31 32 L 29 31 L 31 30 Z" fill="#ffffff" opacity="0.8"/>
  <path d="M 92 36 L 93 38 L 95 39 L 93 40 L 92 42 L 91 40 L 89 39 L 91 38 Z" fill="#ffffff" opacity="0.6"/>
  <path d="M 88 88 L 89 90 L 91 91 L 89 92 L 88 94 L 87 92 L 85 91 L 87 90 Z" fill="#ffffff" opacity="0.7"/>
  <path d="M 28 88 L 29 90 L 31 91 L 29 92 L 28 94 L 27 92 L 25 91 L 27 90 Z" fill="#ffffff" opacity="0.5"/>
</svg>
